<svg xmlns="http://www.w3.org/2000/svg"  viewBox="0 0 48 48" width="48px" height="48px" baseProfile="basic"><path fill="#1e8be5" d="M47.997,15.998c0-0.552-0.448-1-1-1h-2h-4h-1.999	c-0.552,0-1,0.448-1,1v2c0,0.552,0.448,1,1,1h1.999v13c0,0.552,0.448,1,1,1h2c0.552,0,1-0.448,1-1v-13h2c0.552,0,1-0.448,1-1V15.998	z"/><path fill="#1e8be5" d="M35.973,14.998h-2.811c-0.396,0-0.753,0.233-0.915,0.595	l-1.749,3.405l-1.751-3.405c-0.16-0.361-0.519-0.595-0.913-0.595h-2.811c-0.724,0-1.208,0.745-0.915,1.407l3.889,7.593l-3.889,7.593	c-0.293,0.661,0.191,1.407,0.915,1.407h2.811c0.395,0,0.753-0.233,0.913-0.595l1.751-3.405l1.749,3.405	c0.16,0.361,0.519,0.595,0.915,0.595h2.811c0.724,0,1.208-0.745,0.913-1.407l-3.888-7.593l3.888-7.593	C37.181,15.743,36.697,14.998,35.973,14.998z"/><path fill="#1e8be5" d="M7.998,15.998v9l-3.735-9.405	c-0.161-0.361-0.52-0.595-0.915-0.595H0.999c-0.552,0-1,0.448-1,1v16c0,0.552,0.448,1,1,1h2c0.552,0,1-0.448,1-1v-9l3.735,9.405	c0.161,0.361,0.52,0.595,0.915,0.595h2.349c0.552,0,1-0.448,1-1v-16c0-0.552-0.448-1-1-1h-2C8.446,14.998,7.998,15.446,7.998,15.998	z"/><path fill="#1e8be5" d="M22.037,14.998h-8.039c-0.552,0-1,0.448-1,1v2	c0,0.552,0.448,1,1,1h3l-3.961,12.724c-0.183,0.64,0.297,1.276,0.961,1.276h8c0.552,0,1-0.448,1-1v-2c0-0.552-0.448-1-1-1h-3	l4-12.725C23.181,15.634,22.701,14.998,22.037,14.998z"/></svg>